<?xml version="1.0" encoding="utf-8"?>
<?xml-stylesheet type="text/xsl" href="rss1.xsl"?>
<rss version="2.0" xmlns:atom="http://www.w3.org/2005/Atom" xmlns:content="http://purl.org/rss/1.0/modules/content/" xmlns:dc="http://purl.org/dc/elements/1.1/" xmlns:media="http://search.yahoo.com/mrss/">
<channel>
 <title>Getty</title>
 <link>http://www.gettyimg.com/</link>
 <atom:link href="http://www.gettyimg.com/" rel="self" type="application/rss+xml" />

 
                <item>
                <title><![CDATA[【Apple Music】WEB-RiP - Griff - Apple Music London Sessions Video  'A.M WEB-DL.1080.AAC2.0-fstambuk']]></title>
                <link><![CDATA[https://sharemania.us/threads/griff-apple-music-london-sessions-video-a-m-web-dl-1080-aac2-0-fstambuk.239829/]]></link>
                <description><![CDATA[<article>
<blockquote class="messageText SelectQuoteContainer ugc baseHtml">
<div style="text-align: center"><img src="https://i.ibb.co/4Zs3BsG/20240313162530.gif" class="bbCodeImage LbImage" alt="[​IMG]" data-url="https://i.ibb.co/4Zs3BsG/20240313162530.gif" style=""><br>
​</div>
<div class="ToggleTriggerAnchor bbCodeSpoilerContainer">
<button type="button" class="button bbCodeSpoilerButton ToggleTrigger Tooltip JsOnly" data-target="> .SpoilerTarget"><span>Spoiler: <span class="SpoilerTitle">Apple Music</span></span></button>
<div class="SpoilerTarget bbCodeSpoilerText">
<div class="bbCodeBlock bbCodeCode">
<div class="type">Code:</div>
<pre>General
Complete name                            : Griff - Apple Music London Sessions Video  'A.M WEB-DL.1080.AAC2.0-fstambuk'.mp4
Format                                   : MPEG-4
Format profile                           : Base Media
Codec ID                                 : isom (isom/iso4)
File size                                : 187 MiB
Duration                                 : 3 min 44 s
Overall bit rate mode                    : Variable
Overall bit rate                         : 6 981 kb/s
Frame rate                               : 23.976 FPS
Movie name                               : Astronaut (Apple Music London Sessions Video)
Performer                                : Griff
Genre                                    : Pop
ContentType                              : Music Video
Recorded date                            : 2024-03-13
Encoded date                             : 2024-03-13 15:58:28 UTC
Tagged date                              : 2024-03-13 15:58:28 UTC
ISRC                                     : GB1302400190
Cover                                    : Yes

Video
ID                                       : 1
Format                                   : AVC
Format/Info                              : Advanced Video Codec
Format profile                           : High@L4
Format settings                          : CABAC / 4 Ref Frames
Format settings, CABAC                   : Yes
Format settings, Reference frames        : 4 frames
Format settings, GOP                     : M=2, N=93
Format settings, Slice count             : 8 slices per frame
Codec ID                                 : avc1
Codec ID/Info                            : Advanced Video Coding
Duration                                 : 3 min 44 s
Bit rate                                 : 6 707 kb/s
Maximum bit rate                         : 17.3 Mb/s
Width                                    : 1 920 pixels
Height                                   : 1 080 pixels
Display aspect ratio                     : 16:9
Frame rate mode                          : Constant
Frame rate                               : 23.976 (24000/1001) FPS
Color space                              : YUV
Chroma subsampling                       : 4:2:0
Bit depth                                : 8 bits
Scan type                                : Progressive
Bits/(Pixel*Frame)                       : 0.135
Stream size                              : 179 MiB (96%)
Default                                  : Yes
Alternate group                          : 1
Encoded date                             : 2024-03-12 16:45:32 UTC
Tagged date                              : 2024-03-13 15:58:28 UTC
Color range                              : Limited
Color primaries                          : BT.709
Transfer characteristics                 : BT.709
Matrix coefficients                      : BT.709
Codec configuration box                  : avcC

Audio
ID                                       : 2
Format                                   : AAC LC
Format/Info                              : Advanced Audio Codec Low Complexity
Codec ID                                 : 2 / 40 / mp4a-40-2
Duration                                 : 3 min 44 s
Duration_LastFrame                       : -6 ms
Bit rate mode                            : Variable
Bit rate                                 : 265 kb/s
Maximum bit rate                         : 435 kb/s
Channel(s)                               : 2 channels
Channel layout                           : L R
Sampling rate                            : 48.0 kHz
Frame rate                               : 46.875 FPS (1024 SPF)
Compression mode                         : Lossy
Stream size                              : 7.01 MiB (4%)
Language                                 : English
Default                                  : Yes
Alternate group                          : 2
Encoded date                             : 2024-03-12 16:45:27 UTC
Tagged date                              : 2024-03-13 15:58:28 UTC</pre>
</div><div style="text-align: center">​</div></div>
</div><div style="text-align: center"><br>
<div class="bbCodeBlock bbCodeVfcHH HiddenContent">
<div class="attribution type">Hidden Content:</div>
<blockquote>You must reply before you can see the hidden data contained here.</blockquote>
</div></div>
<div class="messageTextEndMarker">&nbsp;</div>
</blockquote>
</article>]]></description>
                <author><![CDATA[fstambuk]]></author>
                </item>

                
                <item>
                <title><![CDATA[【SD】DVD - Madonna - Frozen (Stereo MC's Remix) (1998/2006) [VOB]]]></title>
                <link><![CDATA[https://sharemania.us/threads/madonna-frozen-stereo-mcs-remix-1998-2006-vob.239830/]]></link>
                <description><![CDATA[<article>
<blockquote class="messageText SelectQuoteContainer ugc baseHtml">
<div style="text-align: center"><img src="https://i.discogs.com/vk4w-jPtZr6XHUVVTaPOw5MmsT5aa6A06PD7fCKzpVs/rs:fit/g:sm/q:90/h:450/w:600/czM6Ly9kaXNjb2dz/LWRhdGFiYXNlLWlt/YWdlcy9SLTU0OTM2/MDctMTM5NDgxNzA4/Mi05Mjc0LmpwZWc.jpeg" class="bbCodeImage LbImage" alt="[​IMG]" data-url="https://i.discogs.com/vk4w-jPtZr6XHUVVTaPOw5MmsT5aa6A06PD7fCKzpVs/rs:fit/g:sm/q:90/h:450/w:600/czM6Ly9kaXNjb2dz/LWRhdGFiYXNlLWlt/YWdlcy9SLTU0OTM2/MDctMTM5NDgxNzA4/Mi05Mjc0LmpwZWc.jpeg" style=""> <br>
<a href="https://www.discogs.com/release/5493607-Madonna-Frozen-Stereo-MCs-Mix" target="_blank" class="externalLink" rel="nofollow">https://www.discogs.com/release/5493607-Madonna-Frozen-Stereo-MCs-Mix</a><br>
<img src="https://i.postimg.cc/FF2V7ckz/Madonna-Frozen-Stereo-MC-s-Remix-vob-thumbs.jpg" class="bbCodeImage LbImage" alt="[​IMG]" data-url="https://i.postimg.cc/FF2V7ckz/Madonna-Frozen-Stereo-MC-s-Remix-vob-thumbs.jpg" style=""> <br>
<br>
<div class="bbCodeBlock bbCodeVfcHH HiddenContent">
<div class="attribution type">Hidden Content:</div>
<blockquote>You must either reply or click 'Like' to see the hidden information contained here.</blockquote>
</div></div>
<div class="messageTextEndMarker">&nbsp;</div>
</blockquote>
</article>]]></description>
                <author><![CDATA[Fan Made]]></author>
                </item>

                </channel></rss>